<mxfile host="app.diagrams.net" agent="Mozilla/5.0 (Windows NT 10.0; Win64; x64) AppleWebKit/537.36 (KHTML, like Gecko) Chrome/140.0.0.0 Safari/537.36 Edg/140.0.0.0" version="28.2.3">
  <diagram name="Страница — 1" id="hbGo517ZSdgZhSl3C-ny">
    <mxGraphModel dx="1668" dy="934" grid="1" gridSize="1.1810999999999998" guides="1" tooltips="1" connect="1" arrows="1" fold="1" page="1" pageScale="1" pageWidth="827" pageHeight="1169" math="0" shadow="0">
      <root>
        <mxCell id="0" />
        <mxCell id="1" parent="0" />
        <mxCell id="8KGhdFqlQg8iC7Z6D_Kp-29" value="" style="edgeStyle=orthogonalEdgeStyle;rounded=0;orthogonalLoop=1;jettySize=auto;html=1;strokeWidth=1.9685;" edge="1" parent="1" source="8KGhdFqlQg8iC7Z6D_Kp-1" target="8KGhdFqlQg8iC7Z6D_Kp-2">
          <mxGeometry relative="1" as="geometry" />
        </mxCell>
        <mxCell id="8KGhdFqlQg8iC7Z6D_Kp-1" value="&lt;font style=&quot;font-size: 20px;&quot;&gt;Фильтр&lt;/font&gt;" style="rounded=0;whiteSpace=wrap;html=1;strokeWidth=1.9685;" vertex="1" parent="1">
          <mxGeometry x="283.24" y="270" width="120" height="60" as="geometry" />
        </mxCell>
        <mxCell id="8KGhdFqlQg8iC7Z6D_Kp-2" value="&lt;font style=&quot;font-size: 20px;&quot;&gt;Детектор фронтов&lt;/font&gt;" style="rounded=0;whiteSpace=wrap;html=1;strokeWidth=1.9685;" vertex="1" parent="1">
          <mxGeometry x="473.24" y="240" width="120" height="120" as="geometry" />
        </mxCell>
        <mxCell id="8KGhdFqlQg8iC7Z6D_Kp-3" value="&lt;font style=&quot;font-size: 20px;&quot;&gt;Предделитель&lt;/font&gt;" style="rounded=0;whiteSpace=wrap;html=1;strokeWidth=1.9685;" vertex="1" parent="1">
          <mxGeometry x="873.24" y="300" width="150" height="80" as="geometry" />
        </mxCell>
        <mxCell id="8KGhdFqlQg8iC7Z6D_Kp-4" value="&lt;font style=&quot;font-size: 20px;&quot;&gt;Регистр&amp;nbsp;&lt;/font&gt;&lt;div&gt;&lt;font style=&quot;font-size: 20px;&quot;&gt;захвата/сравнения&lt;/font&gt;&lt;/div&gt;" style="rounded=0;whiteSpace=wrap;html=1;strokeWidth=1.9685;" vertex="1" parent="1">
          <mxGeometry x="1096.78" y="302.36" width="201.97" height="80.94" as="geometry" />
        </mxCell>
        <mxCell id="8KGhdFqlQg8iC7Z6D_Kp-5" value="" style="verticalLabelPosition=middle;verticalAlign=middle;html=1;shape=trapezoid;perimeter=trapezoidPerimeter;whiteSpace=wrap;size=0.23;arcSize=10;flipV=1;labelPosition=center;align=center;rotation=-90;strokeWidth=1.9685;" vertex="1" parent="1">
          <mxGeometry x="618.24" y="310" width="240" height="60" as="geometry" />
        </mxCell>
        <mxCell id="8KGhdFqlQg8iC7Z6D_Kp-6" value="" style="endArrow=classic;html=1;rounded=0;strokeWidth=1.9685;" edge="1" parent="1">
          <mxGeometry width="50" height="50" relative="1" as="geometry">
            <mxPoint x="593.24" y="260" as="sourcePoint" />
            <mxPoint x="703.24" y="260" as="targetPoint" />
          </mxGeometry>
        </mxCell>
        <mxCell id="8KGhdFqlQg8iC7Z6D_Kp-7" value="" style="endArrow=classic;html=1;rounded=0;strokeWidth=1.9685;" edge="1" parent="1">
          <mxGeometry width="50" height="50" relative="1" as="geometry">
            <mxPoint x="450" y="406" as="sourcePoint" />
            <mxPoint x="703.24" y="340" as="targetPoint" />
            <Array as="points">
              <mxPoint x="491" y="406" />
              <mxPoint x="491" y="384" />
              <mxPoint x="622" y="384" />
              <mxPoint x="622" y="340" />
            </Array>
          </mxGeometry>
        </mxCell>
        <mxCell id="8KGhdFqlQg8iC7Z6D_Kp-8" value="" style="endArrow=classic;html=1;rounded=0;strokeWidth=1.9685;" edge="1" parent="1">
          <mxGeometry width="50" height="50" relative="1" as="geometry">
            <mxPoint x="593.24" y="420" as="sourcePoint" />
            <mxPoint x="703.24" y="420" as="targetPoint" />
          </mxGeometry>
        </mxCell>
        <mxCell id="8KGhdFqlQg8iC7Z6D_Kp-9" value="&lt;font style=&quot;font-size: 20px;&quot;&gt;TI1FP1&lt;/font&gt;" style="text;html=1;align=center;verticalAlign=middle;whiteSpace=wrap;rounded=0;" vertex="1" parent="1">
          <mxGeometry x="613.24" y="230" width="60" height="30" as="geometry" />
        </mxCell>
        <mxCell id="8KGhdFqlQg8iC7Z6D_Kp-10" value="&lt;font style=&quot;font-size: 20px;&quot;&gt;TI2FP1&lt;/font&gt;" style="text;html=1;align=center;verticalAlign=middle;whiteSpace=wrap;rounded=0;" vertex="1" parent="1">
          <mxGeometry x="625.98" y="305.9" width="60" height="30" as="geometry" />
        </mxCell>
        <mxCell id="8KGhdFqlQg8iC7Z6D_Kp-11" value="&lt;font style=&quot;font-size: 20px;&quot;&gt;TRC&lt;/font&gt;" style="text;html=1;align=center;verticalAlign=middle;whiteSpace=wrap;rounded=0;" vertex="1" parent="1">
          <mxGeometry x="535.76" y="403.54" width="60" height="30" as="geometry" />
        </mxCell>
        <mxCell id="8KGhdFqlQg8iC7Z6D_Kp-12" value="" style="endArrow=classic;html=1;rounded=0;exitX=0.5;exitY=1;exitDx=0;exitDy=0;strokeWidth=1.9685;" edge="1" parent="1" source="8KGhdFqlQg8iC7Z6D_Kp-5">
          <mxGeometry width="50" height="50" relative="1" as="geometry">
            <mxPoint x="773.24" y="340" as="sourcePoint" />
            <mxPoint x="873.24" y="340" as="targetPoint" />
          </mxGeometry>
        </mxCell>
        <mxCell id="8KGhdFqlQg8iC7Z6D_Kp-14" value="" style="endArrow=classic;html=1;rounded=0;strokeWidth=1.9685;" edge="1" parent="1">
          <mxGeometry width="50" height="50" relative="1" as="geometry">
            <mxPoint x="1023.24" y="341.34" as="sourcePoint" />
            <mxPoint x="1095.24" y="341" as="targetPoint" />
          </mxGeometry>
        </mxCell>
        <mxCell id="8KGhdFqlQg8iC7Z6D_Kp-16" value="" style="verticalLabelPosition=middle;verticalAlign=middle;html=1;shape=trapezoid;perimeter=trapezoidPerimeter;whiteSpace=wrap;size=0.23;arcSize=10;flipV=1;labelPosition=center;align=center;rotation=-90;strokeWidth=1.9685;" vertex="1" parent="1">
          <mxGeometry x="390.55000000000007" y="611.8" width="263.62" height="60" as="geometry" />
        </mxCell>
        <mxCell id="8KGhdFqlQg8iC7Z6D_Kp-19" value="" style="endArrow=classic;html=1;rounded=0;exitX=0.5;exitY=1;exitDx=0;exitDy=0;strokeWidth=1.9685;" edge="1" parent="1">
          <mxGeometry width="50" height="50" relative="1" as="geometry">
            <mxPoint x="386.61" y="552.75" as="sourcePoint" />
            <mxPoint x="491.61" y="552.75" as="targetPoint" />
          </mxGeometry>
        </mxCell>
        <mxCell id="8KGhdFqlQg8iC7Z6D_Kp-20" value="" style="endArrow=classic;html=1;rounded=0;exitX=0.5;exitY=1;exitDx=0;exitDy=0;strokeWidth=1.9685;" edge="1" parent="1">
          <mxGeometry width="50" height="50" relative="1" as="geometry">
            <mxPoint x="386.61" y="615.7399999999999" as="sourcePoint" />
            <mxPoint x="491.61" y="615.7399999999999" as="targetPoint" />
          </mxGeometry>
        </mxCell>
        <mxCell id="8KGhdFqlQg8iC7Z6D_Kp-21" value="" style="endArrow=classic;html=1;rounded=0;exitX=0.5;exitY=1;exitDx=0;exitDy=0;strokeWidth=1.9685;" edge="1" parent="1">
          <mxGeometry width="50" height="50" relative="1" as="geometry">
            <mxPoint x="386.61" y="678.7299999999999" as="sourcePoint" />
            <mxPoint x="491.61" y="678.7299999999999" as="targetPoint" />
          </mxGeometry>
        </mxCell>
        <mxCell id="8KGhdFqlQg8iC7Z6D_Kp-22" value="" style="endArrow=classic;html=1;rounded=0;exitX=0.5;exitY=1;exitDx=0;exitDy=0;strokeWidth=1.9685;" edge="1" parent="1">
          <mxGeometry width="50" height="50" relative="1" as="geometry">
            <mxPoint x="388.58000000000004" y="741.7199999999999" as="sourcePoint" />
            <mxPoint x="493.58000000000004" y="741.7199999999999" as="targetPoint" />
          </mxGeometry>
        </mxCell>
        <mxCell id="8KGhdFqlQg8iC7Z6D_Kp-23" value="&lt;font style=&quot;font-size: 20px;&quot;&gt;TRC&lt;/font&gt;" style="text;html=1;align=center;verticalAlign=middle;whiteSpace=wrap;rounded=0;" vertex="1" parent="1">
          <mxGeometry x="614.17" y="630.6999999999999" width="36.38" height="21.26" as="geometry" />
        </mxCell>
        <mxCell id="8KGhdFqlQg8iC7Z6D_Kp-24" value="" style="endArrow=classic;html=1;rounded=0;strokeWidth=1.9685;" edge="1" parent="1">
          <mxGeometry width="50" height="50" relative="1" as="geometry">
            <mxPoint x="552.7500000000001" y="641.9399999999999" as="sourcePoint" />
            <mxPoint x="611.1" y="641.8199999999999" as="targetPoint" />
          </mxGeometry>
        </mxCell>
        <mxCell id="8KGhdFqlQg8iC7Z6D_Kp-25" value="&lt;font style=&quot;font-size: 20px;&quot;&gt;ITR0&lt;/font&gt;" style="text;html=1;align=center;verticalAlign=middle;whiteSpace=wrap;rounded=0;" vertex="1" parent="1">
          <mxGeometry x="335.42999999999995" y="542.1199999999999" width="42.52" height="25.98" as="geometry" />
        </mxCell>
        <mxCell id="8KGhdFqlQg8iC7Z6D_Kp-26" value="&lt;font style=&quot;font-size: 20px;&quot;&gt;ITR1&lt;/font&gt;" style="text;html=1;align=center;verticalAlign=middle;whiteSpace=wrap;rounded=0;" vertex="1" parent="1">
          <mxGeometry x="335.42999999999995" y="599.9899999999999" width="42.52" height="25.98" as="geometry" />
        </mxCell>
        <mxCell id="8KGhdFqlQg8iC7Z6D_Kp-27" value="&lt;font style=&quot;font-size: 20px;&quot;&gt;ITR2&lt;/font&gt;" style="text;html=1;align=center;verticalAlign=middle;whiteSpace=wrap;rounded=0;" vertex="1" parent="1">
          <mxGeometry x="336.61" y="663.77" width="42.52" height="25.98" as="geometry" />
        </mxCell>
        <mxCell id="8KGhdFqlQg8iC7Z6D_Kp-28" value="&lt;font style=&quot;font-size: 20px;&quot;&gt;ITR3&lt;/font&gt;" style="text;html=1;align=center;verticalAlign=middle;whiteSpace=wrap;rounded=0;" vertex="1" parent="1">
          <mxGeometry x="336.61" y="727.55" width="42.52" height="28.45" as="geometry" />
        </mxCell>
        <mxCell id="8KGhdFqlQg8iC7Z6D_Kp-30" value="" style="endArrow=classic;html=1;rounded=0;strokeWidth=1.9685;" edge="1" parent="1">
          <mxGeometry width="50" height="50" relative="1" as="geometry">
            <mxPoint x="217" y="300" as="sourcePoint" />
            <mxPoint x="282.22" y="299.77" as="targetPoint" />
          </mxGeometry>
        </mxCell>
        <mxCell id="8KGhdFqlQg8iC7Z6D_Kp-31" value="&lt;font style=&quot;font-size: 20px;&quot;&gt;TIM_CH1&lt;/font&gt;" style="text;html=1;align=center;verticalAlign=middle;whiteSpace=wrap;rounded=0;" vertex="1" parent="1">
          <mxGeometry x="141.73000000000002" y="283.46" width="60" height="30" as="geometry" />
        </mxCell>
        <mxCell id="8KGhdFqlQg8iC7Z6D_Kp-33" value="&lt;font style=&quot;font-size: 20px;&quot;&gt;CNT&lt;/font&gt;" style="rounded=0;whiteSpace=wrap;html=1;" vertex="1" parent="1">
          <mxGeometry x="1091.34" y="112.20000000000002" width="202.43" height="69.76" as="geometry" />
        </mxCell>
        <mxCell id="8KGhdFqlQg8iC7Z6D_Kp-34" value="" style="shape=flexArrow;endArrow=classic;html=1;rounded=0;endWidth=60.24340770791075;endSize=15.013793103448275;width=46.20689655172414;" edge="1" parent="1">
          <mxGeometry width="50" height="50" relative="1" as="geometry">
            <mxPoint x="1192.91" y="181.75" as="sourcePoint" />
            <mxPoint x="1193.23" y="302.36" as="targetPoint" />
          </mxGeometry>
        </mxCell>
        <mxCell id="8KGhdFqlQg8iC7Z6D_Kp-36" value="&lt;span style=&quot;font-size: 20px;&quot;&gt;TIM_CH2&lt;/span&gt;" style="text;html=1;align=center;verticalAlign=middle;whiteSpace=wrap;rounded=0;" vertex="1" parent="1">
          <mxGeometry x="137.01" y="386.21999999999997" width="60" height="30" as="geometry" />
        </mxCell>
        <mxCell id="8KGhdFqlQg8iC7Z6D_Kp-37" value="" style="endArrow=classic;html=1;rounded=0;strokeWidth=1.9685;" edge="1" parent="1" target="8KGhdFqlQg8iC7Z6D_Kp-38">
          <mxGeometry width="50" height="50" relative="1" as="geometry">
            <mxPoint x="212.6" y="402.99" as="sourcePoint" />
            <mxPoint x="277.82000000000005" y="402.76" as="targetPoint" />
          </mxGeometry>
        </mxCell>
        <mxCell id="8KGhdFqlQg8iC7Z6D_Kp-38" value="&lt;font style=&quot;font-size: 41px;&quot;&gt;...&lt;/font&gt;" style="text;html=1;align=center;verticalAlign=middle;whiteSpace=wrap;rounded=0;" vertex="1" parent="1">
          <mxGeometry x="271.65" y="387.76" width="177.17" height="30" as="geometry" />
        </mxCell>
      </root>
    </mxGraphModel>
  </diagram>
</mxfile>
